<?xml version="1.0" encoding="utf-8"?>
<!-- Generator: Adobe Illustrator 19.2.1, SVG Export Plug-In . SVG Version: 6.00 Build 0)  -->
<svg version="1.1" id="Ebene_1" xmlns="http://www.w3.org/2000/svg" xmlns:xlink="http://www.w3.org/1999/xlink" x="0px" y="0px"
	 viewBox="0 0 256 256" style="enable-background:new 0 0 256 256;" xml:space="preserve">
<style type="text/css">
	.st0{fill:#F3A905;}
	.st1{opacity:0.15;clip-path:url(#SVGID_2_);fill:#020203;}
	.st2{fill:#FFFFFF;}
</style>
<path class="st0" d="M256,233c0,12.7-10.3,23-23,23H23c-12.7,0-23-10.3-23-23V23C0,10.3,10.3,0,23,0h210c12.7,0,23,10.3,23,23V233z"
	/>
<g>
	<defs>
		<path id="SVGID_1_" d="M256,233c0,12.7-10.3,23-23,23H23c-12.7,0-23-10.3-23-23V23C0,10.3,10.3,0,23,0h210c12.7,0,23,10.3,23,23
			V233z"/>
	</defs>
	<clipPath id="SVGID_2_">
		<use xlink:href="#SVGID_1_"  style="overflow:visible;"/>
	</clipPath>
	<polygon class="st1" points="-16.4,121.6 54.1,62.9 74.9,44 201.9,44 199.9,189.1 179.1,208 107.6,269.8 -12.2,271.4 	"/>
</g>
<g>
	<path class="st2" d="M199.9,189.1h-123c-1.1,0-2-0.9-2-2V44c0-1.1,0.9-2,2-2h123c1.1,0,2,0.9,2,2v143.1
		C201.9,188.2,201,189.1,199.9,189.1z M78.9,185.1h119V46h-119V185.1z"/>
</g>
<g>
	<path class="st2" d="M181,108.8h-37.7c-1.1,0-2-0.9-2-2V72.3c0-1.1,0.9-2,2-2H181c1.1,0,2,0.9,2,2v34.5
		C183,107.9,182.1,108.8,181,108.8z M145.4,104.8H179V74.3h-33.7V104.8z"/>
</g>
<g>
	<path class="st2" d="M134,74.3H95.7c-1.1,0-2-0.9-2-2s0.9-2,2-2H134c1.1,0,2,0.9,2,2S135.1,74.3,134,74.3z"/>
</g>
<g>
	<path class="st2" d="M134,88.7H95.7c-1.1,0-2-0.9-2-2s0.9-2,2-2H134c1.1,0,2,0.9,2,2S135.1,88.7,134,88.7z"/>
</g>
<g>
	<path class="st2" d="M134,103.2H95.7c-1.1,0-2-0.9-2-2s0.9-2,2-2H134c1.1,0,2,0.9,2,2S135.1,103.2,134,103.2z"/>
</g>
<g>
	<path class="st2" d="M181,117.6H95.7c-1.1,0-2-0.9-2-2s0.9-2,2-2H181c1.1,0,2,0.9,2,2S182.1,117.6,181,117.6z"/>
</g>
<g>
	<path class="st2" d="M181,132H95.7c-1.1,0-2-0.9-2-2c0-1.1,0.9-2,2-2H181c1.1,0,2,0.9,2,2C183,131.1,182.1,132,181,132z"/>
</g>
<g>
	<path class="st2" d="M181,146.5H95.7c-1.1,0-2-0.9-2-2c0-1.1,0.9-2,2-2H181c1.1,0,2,0.9,2,2C183,145.6,182.1,146.5,181,146.5z"/>
</g>
<g>
	<path class="st2" d="M181,160.9H95.7c-1.1,0-2-0.9-2-2c0-1.1,0.9-2,2-2H181c1.1,0,2,0.9,2,2C183,160,182.1,160.9,181,160.9z"/>
</g>
<g>
	<path class="st2" d="M179.1,208h-123c-1.1,0-2-0.9-2-2V62.9c0-1.1,0.9-2,2-2h20.7c1.1,0,2,0.9,2,2v122.2h100.3c1.1,0,2,0.9,2,2V206
		C181.1,207.1,180.2,208,179.1,208z M58.1,204h119v-14.8H76.9c-1.1,0-2-0.9-2-2V64.9H58.1V204z"/>
</g>
</svg>
