<?xml version="1.0" encoding="utf-8"?>
<!-- Generator: Adobe Illustrator 19.2.1, SVG Export Plug-In . SVG Version: 6.00 Build 0)  -->
<svg version="1.1" id="Ebene_1" xmlns="http://www.w3.org/2000/svg" xmlns:xlink="http://www.w3.org/1999/xlink" x="0px" y="0px"
	 viewBox="0 0 256 256" style="enable-background:new 0 0 256 256;" xml:space="preserve">
<style type="text/css">
	.st0{fill:#F3A905;}
	.st1{opacity:0.15;clip-path:url(#SVGID_2_);fill:#020203;}
	.st2{fill:#FFFFFF;}
</style>
<path class="st0" d="M256,233c0,12.7-10.3,23-23,23H23c-12.7,0-23-10.3-23-23V23C0,10.3,10.3,0,23,0h210c12.7,0,23,10.3,23,23V233z"
	/>
<g>
	<defs>
		<path id="SVGID_1_" d="M256,233c0,12.7-10.3,23-23,23H23c-12.7,0-23-10.3-23-23V23C0,10.3,10.3,0,23,0h210c12.7,0,23,10.3,23,23
			V233z"/>
	</defs>
	<clipPath id="SVGID_2_">
		<use xlink:href="#SVGID_1_"  style="overflow:visible;"/>
	</clipPath>
	<polygon class="st1" points="-6.7,128.7 43.7,79.8 75.3,79.4 93.8,57.3 161.6,58 161.6,81.2 211.7,80.5 212,192.2 117,271.6 
		-8.5,273.8 -8.1,203.1 	"/>
</g>
<g>
	<path class="st2" d="M211.9,193.5H44.1c-1.1,0-2-0.9-2-2V80.7c0-1.1,0.9-2,2-2h167.7c1.1,0,2,0.9,2,2v110.8
		C213.9,192.6,213,193.5,211.9,193.5z M46.1,189.5h163.7V82.7H46.1V189.5z M138.5,131.8h-21c-4.7,0-8.6-3.9-8.6-8.6v-6.6
		c0-4.7,3.9-8.6,8.6-8.6h21c4.7,0,8.6,3.9,8.6,8.6v6.6C147.1,127.9,143.2,131.8,138.5,131.8z M117.5,112c-2.5,0-4.6,2.1-4.6,4.6v6.6
		c0,2.5,2.1,4.6,4.6,4.6h21c2.5,0,4.6-2.1,4.6-4.6v-6.6c0-2.5-2.1-4.6-4.6-4.6H117.5z"/>
</g>
<g>
	<path class="st2" d="M211.9,122.2h-66.8c-1.1,0-2-0.9-2-2v-3.6c0-2.5-2.1-4.6-4.6-4.6h-21c-2.5,0-4.6,2.1-4.6,4.6v3.6
		c0,1.1-0.9,2-2,2H44.1c-1.1,0-2-0.9-2-2V80.7c0-1.1,0.9-2,2-2h167.7c1.1,0,2,0.9,2,2v39.5C213.9,121.3,213,122.2,211.9,122.2z
		 M147.1,118.2h62.8V82.7H46.1v35.5h62.8v-1.6c0-4.7,3.9-8.6,8.6-8.6h21c4.7,0,8.6,3.9,8.6,8.6V118.2z"/>
</g>
<g>
	<path class="st2" d="M138.5,131.8h-21c-4.7,0-8.6-3.9-8.6-8.6v-6.6c0-4.7,3.9-8.6,8.6-8.6h21c4.7,0,8.6,3.9,8.6,8.6v6.6
		C147.1,127.9,143.2,131.8,138.5,131.8z M117.5,112c-2.5,0-4.6,2.1-4.6,4.6v6.6c0,2.5,2.1,4.6,4.6,4.6h21c2.5,0,4.6-2.1,4.6-4.6
		v-6.6c0-2.5-2.1-4.6-4.6-4.6H117.5z"/>
</g>
<g>
	<path class="st2" d="M160.9,82.7H95.1c-1.1,0-2-0.9-2-2V58.5c0-1.1,0.9-2,2-2h65.9c1.1,0,2,0.9,2,2v22.2
		C162.9,81.8,162.1,82.7,160.9,82.7z M97.1,78.7h61.9V60.5H97.1V78.7z"/>
</g>
</svg>
