<?xml version="1.0" encoding="utf-8"?>
<!-- Generator: Adobe Illustrator 19.2.1, SVG Export Plug-In . SVG Version: 6.00 Build 0)  -->
<svg version="1.1" id="Ebene_1" xmlns="http://www.w3.org/2000/svg" xmlns:xlink="http://www.w3.org/1999/xlink" x="0px" y="0px"
	 viewBox="0 0 256 256" style="enable-background:new 0 0 256 256;" xml:space="preserve">
<style type="text/css">
	.st0{fill:#F3A905;}
	.st1{opacity:0.15;clip-path:url(#SVGID_2_);fill:#020203;}
	.st2{fill:#FFFFFF;}
</style>
<path class="st0" d="M256,233c0,12.7-10.3,23-23,23H23c-12.7,0-23-10.3-23-23V23C0,10.3,10.3,0,23,0h210c12.7,0,23,10.3,23,23V233z"
	/>
<g>
	<defs>
		<path id="SVGID_1_" d="M256,233c0,12.7-10.3,23-23,23H23c-12.7,0-23-10.3-23-23V23C0,10.3,10.3,0,23,0h210c12.7,0,23,10.3,23,23
			V233z"/>
	</defs>
	<clipPath id="SVGID_2_">
		<use xlink:href="#SVGID_1_"  style="overflow:visible;"/>
	</clipPath>
	<polygon class="st1" points="-9,161 84,60 102,46 122,41 138,43 158,52 174,62 183,78 190.4,103 185,125 174,145 151,172 
		150.9,187.1 141,198 151.5,194.9 136,209 151.5,209.4 93,270 -11,271 -16,205 	"/>
</g>
<g>
	<path class="st2" d="M150.9,187.1h-45.8c-1.1,0-2-0.9-2-2v-24.9C80.3,150.3,65.6,128,65.6,103c0-34.4,28-62.4,62.4-62.4
		c34.4,0,62.4,28,62.4,62.4c0,25-14.7,47.3-37.6,57.3v24.9C152.9,186.2,152,187.1,150.9,187.1z M107.1,183.1h41.8v-24.2
		c0-0.8,0.5-1.5,1.2-1.9c22.1-9,36.3-30.3,36.3-54.1c0-32.2-26.2-58.4-58.4-58.4c-32.2,0-58.4,26.2-58.4,58.4
		c0,23.8,14.3,45.1,36.3,54.1c0.8,0.3,1.2,1,1.2,1.9V183.1z"/>
</g>
<g>
	<path class="st2" d="M128,136.1c-0.5,0-1-0.2-1.4-0.6L106,115c-0.8-0.8-0.8-2,0-2.8c0.8-0.8,2-0.8,2.8,0l19.1,19.1l18-19.6
		c0.7-0.8,2-0.9,2.8-0.1c0.8,0.7,0.9,2,0.1,2.8l-19.4,21.1C129.1,135.8,128.6,136.1,128,136.1C128,136.1,128,136.1,128,136.1z"/>
</g>
<g>
	<path class="st2" d="M128.1,187.3c-1.1,0-2-0.9-2-2l-0.1-51.6c0-1.1,0.9-2,2-2c1.1,0,2,0.9,2,2l0.1,51.6
		C130.1,186.4,129.2,187.3,128.1,187.3C128.1,187.3,128.1,187.3,128.1,187.3z"/>
</g>
<g>
	<path class="st2" d="M151.5,198.9h-48.1c-1.1,0-2-0.9-2-2c0-1.1,0.9-2,2-2h48.1c1.1,0,2,0.9,2,2C153.5,198,152.6,198.9,151.5,198.9
		z"/>
</g>
<g>
	<path class="st2" d="M151.5,209.4h-48.1c-1.1,0-2-0.9-2-2c0-1.1,0.9-2,2-2h48.1c1.1,0,2,0.9,2,2
		C153.5,208.5,152.6,209.4,151.5,209.4z"/>
</g>
</svg>
