<?xml version="1.0" encoding="utf-8"?>
<!-- Generator: Adobe Illustrator 19.2.1, SVG Export Plug-In . SVG Version: 6.00 Build 0)  -->
<svg version="1.1" id="Ebene_1" xmlns="http://www.w3.org/2000/svg" xmlns:xlink="http://www.w3.org/1999/xlink" x="0px" y="0px"
	 viewBox="0 0 256 256" style="enable-background:new 0 0 256 256;" xml:space="preserve">
<style type="text/css">
	.st0{fill:#F3A905;}
	.st1{opacity:0.15;clip-path:url(#SVGID_2_);fill:#020203;}
	.st2{fill:#FFFFFF;}
</style>
<path class="st0" d="M256,233.1c0,12.7-10.3,23-23,23H23c-12.7,0-23-10.3-23-23v-210c0-12.7,10.3-23,23-23h210c12.7,0,23,10.3,23,23
	V233.1z"/>
<g>
	<defs>
		<path id="SVGID_1_" d="M256,233.1c0,12.7-10.3,23-23,23H23c-12.7,0-23-10.3-23-23v-210c0-12.7,10.3-23,23-23h210
			c12.7,0,23,10.3,23,23V233.1z"/>
	</defs>
	<clipPath id="SVGID_2_">
		<use xlink:href="#SVGID_1_"  style="overflow:visible;"/>
	</clipPath>
	<path class="st1" d="M-7.7,126.1l58.2-37.8l2.4,5.6l55.3-36.3l36.9-5.3l22.1,4.7l23.2,16.3c0,0,17.6,23,20.5,37.4
		c2.9,14.4-6.3,46.3-6.3,46.3l-22.1,29.5L49.2,264.6l-57.4,0.5L-7.7,126.1z"/>
</g>
<g>
	<path class="st2" d="M138.9,200C97.6,200,64,166.4,64,125.1c0-41.3,33.6-74.9,74.9-74.9c41.3,0,74.9,33.6,74.9,74.9
		C213.8,166.4,180.2,200,138.9,200z M138.9,54.3C99.8,54.3,68,86.1,68,125.1c0,39.1,31.8,70.9,70.9,70.9c39.1,0,70.9-31.8,70.9-70.9
		C209.8,86.1,178,54.3,138.9,54.3z"/>
</g>
<g>
	<path class="st2" d="M138.9,179c-29.7,0-53.9-24.2-53.9-53.9c0-29.7,24.2-53.9,53.9-53.9c29.7,0,53.9,24.2,53.9,53.9
		C192.8,154.9,168.6,179,138.9,179z M138.9,75.2c-27.5,0-49.9,22.4-49.9,49.9c0,27.5,22.4,49.9,49.9,49.9
		c27.5,0,49.9-22.4,49.9-49.9C188.8,97.6,166.4,75.2,138.9,75.2z"/>
</g>
<g>
	<path class="st2" d="M138.9,148.9c-13.1,0-23.8-10.7-23.8-23.8c0-13.1,10.7-23.8,23.8-23.8c13.1,0,23.8,10.7,23.8,23.8
		C162.7,138.3,152,148.9,138.9,148.9z M138.9,105.4c-10.9,0-19.8,8.9-19.8,19.8c0,10.9,8.9,19.8,19.8,19.8
		c10.9,0,19.8-8.9,19.8-19.8C158.7,114.2,149.8,105.4,138.9,105.4z"/>
</g>
<g>
	<path class="st2" d="M138.6,126.9c-0.2,0-0.3,0-0.5-0.1l-81.2-21c-1.1-0.3-1.7-1.4-1.4-2.4c0.3-1.1,1.4-1.7,2.4-1.4l81.2,21
		c1.1,0.3,1.7,1.4,1.4,2.4C140.3,126.3,139.5,126.9,138.6,126.9z"/>
</g>
<g>
	<path class="st2" d="M44.3,113c-0.7,0-1.5-0.4-1.8-1.1c-0.5-1-0.1-2.2,0.9-2.7l12-5.9L49.5,91c-0.5-1-0.1-2.2,0.9-2.7
		c1-0.5,2.2-0.1,2.7,0.9l6.7,14.1c0.5,1,0.1,2.2-0.9,2.7l-13.8,6.7C44.9,112.9,44.6,113,44.3,113z"/>
</g>
</svg>
