<?xml version="1.0" encoding="utf-8"?>
<!-- Generator: Adobe Illustrator 19.2.1, SVG Export Plug-In . SVG Version: 6.00 Build 0)  -->
<svg version="1.1" id="Ebene_1" xmlns="http://www.w3.org/2000/svg" xmlns:xlink="http://www.w3.org/1999/xlink" x="0px" y="0px"
	 viewBox="0 0 256 256" style="enable-background:new 0 0 256 256;" xml:space="preserve">
<style type="text/css">
	.st0{fill:#F3A905;}
	.st1{opacity:0.15;clip-path:url(#SVGID_2_);fill:#020203;}
	.st2{fill:#FFFFFF;}
</style>
<path class="st0" d="M256,233c0,12.7-10.3,23-23,23H23c-12.7,0-23-10.3-23-23V23C0,10.3,10.3,0,23,0h210c12.7,0,23,10.3,23,23V233z"
	/>
<g>
	<defs>
		<path id="SVGID_1_" d="M256,233c0,12.7-10.3,23-23,23H23c-12.7,0-23-10.3-23-23V23C0,10.3,10.3,0,23,0h210c12.7,0,23,10.3,23,23
			V233z"/>
	</defs>
	<clipPath id="SVGID_2_">
		<use xlink:href="#SVGID_1_"  style="overflow:visible;"/>
	</clipPath>
	<path class="st1" d="M-5.9,124.8l74.8-61.2l11.4,11.6l27.1-28.3l-0.6,31.8l-22.9,23.4L-8.8,182l3.2,17.5l90.2-79l0,0l17.2-17.8
		l22.9-20.4l4.1-2.6l-4.2,4.1l2.1,1.5l-17.3,15.2l8.6,12.2l12-9.1h33.3L143,123.9l2,5.3l4.3-9.4l5.9-0.5l4.9,4.5l2.7-6.8l5-3.2
		l5.4-0.5l6.7,4.3l6.8,18.3l13.5,23l2.3,13.5l-4.5,13.5l-9.5,9.1l-82.1,77.1l-64.1,5c0,0-56,0.9-58.2-1.8
		c-2.3-2.7-21.2-80.8-21.2-80.8L-5.9,124.8z"/>
</g>
<g>
	<path class="st2" d="M166.5,203.1c-5.9,0-11.5-1.7-16.4-5c-0.2-0.1-0.3-0.1-0.4-0.2L112,177.7c-5.7-3-8.2-9.4-5.6-14.2
		c1.6-3,4.9-4.8,8.7-4.8c2.1,0,4.3,0.6,6.2,1.6l6,3.2l-25.8-48.3c-3-5.7-1.7-12.3,2.9-14.8c1.2-0.6,2.5-0.9,3.8-0.9
		c3.9,0,7.9,2.6,10.1,6.8l12.2,23c0-0.2,0.1-0.4,0.1-0.6c0.5-2.9,2.1-5.2,4.4-6.4c1.3-0.7,2.7-1.1,4.1-1.1c2.6,0,4.8,1.3,6.5,2.7
		c0.6-2.4,2.2-4.4,4.8-5.8c3.4-1.8,7.1-1.7,9.8,0.1c0.9-2.1,2.6-3.3,3.8-4.1c0.4-0.3,0.7-0.5,1-0.7c0.1-0.1,0.2-0.2,0.4-0.3
		c1.4-0.8,3.1-1.2,4.8-1.2c4.1,0,7.8,2.2,9.7,5.8l7.1,13.4c0.7,0.9,1.2,1.9,1.8,2.9l11.6,21.8c3.7,6.9,4.4,14.7,2.2,22.2
		c-2.3,7.4-7.3,13.5-14.1,17.2l-8.4,4.5C175.9,201.9,171.2,203.1,166.5,203.1z M115,162.8c-2.3,0-4.3,1-5.2,2.7
		c-1.5,2.8,0.3,6.8,4,8.8l37.6,20.1c0.1,0,0.2,0.1,0.3,0.1l0.1,0.1c0.1,0,0.2,0.1,0.3,0.2c4.2,2.9,9.2,4.4,14.3,4.4
		c4.1,0,8.1-1,11.8-3l8.4-4.5c5.9-3.2,10.2-8.4,12.2-14.8c2-6.4,1.3-13.2-1.9-19.1l-11.6-21.8c-0.5-0.9-1-1.7-1.6-2.6
		c0-0.1-0.1-0.1-0.1-0.2l-7.2-13.5c-1.2-2.3-3.6-3.7-6.2-3.7c-1,0-2,0.2-2.8,0.6c-0.4,0.3-0.8,0.6-1.2,0.8c-1.8,1.2-3.1,2.1-2.3,5.3
		c0.2,0.8-0.1,1.5-0.7,2c-0.4,0.4-0.9,0.5-1.4,0.5c-0.7,0-1.4-0.4-1.8-1.1c-0.1-0.3-0.2-0.5-0.2-0.8c-1.1-1.7-2.5-2.6-4.3-2.6
		c-1,0-2.1,0.3-3.2,0.9c-3.1,1.6-3.7,4.2-2,7.5c0.5,0.9,0.2,2-0.6,2.6c-0.8,0.6-1.9,0.5-2.6-0.3l-1.8-2c-0.1-0.1-0.2-0.2-0.3-0.3
		c-0.7-0.9-3.1-4-5.9-4c-0.7,0-1.4,0.2-2.2,0.6c-1.2,0.6-2,1.9-2.3,3.6c-0.3,1.8,0.1,3.9,1.1,5.8c0.4,0.8,0.3,1.8-0.4,2.4
		c-0.3,0.3-0.8,0.5-1.2,0.5c0,0,0,0,0,0c-0.4,0.6-1.1,0.9-1.8,0.9c-0.7,0-1.3-0.4-1.7-1.1l-15.9-29.7c-1.5-2.8-4.1-4.6-6.5-4.6
		c-0.7,0-1.4,0.2-2,0.5c-2.6,1.4-3.2,5.7-1.3,9.4l28.9,54.1c0.4,0.8,0.3,1.7-0.4,2.4c-0.6,0.6-1.6,0.8-2.4,0.3l-11.8-6.3
		C118,163.1,116.5,162.8,115,162.8z M160.1,123.9C160.1,123.9,160.1,123.9,160.1,123.9l1.2-0.6l-0.1,0L160.1,123.9z"/>
</g>
<g>
	<path class="st2" d="M69.2,142.6c-0.5,0-0.9-0.2-1.3-0.5c-0.8-0.7-0.9-2-0.2-2.8l16.1-18.1c0.7-0.8,2-0.9,2.8-0.2
		c0.8,0.7,0.9,2,0.2,2.8l-16.1,18.1C70.3,142.4,69.8,142.6,69.2,142.6z"/>
</g>
<g>
	<path class="st2" d="M81.9,104.1H54.1c-1.1,0-2-0.9-2-2s0.9-2,2-2h27.8c1.1,0,2,0.9,2,2S83,104.1,81.9,104.1z"/>
</g>
<g>
	<path class="st2" d="M88.8,86c-0.5,0-1-0.2-1.4-0.6l-18.5-19c-0.8-0.8-0.8-2.1,0-2.8c0.8-0.8,2.1-0.8,2.8,0l18.5,19
		c0.8,0.8,0.8,2.1,0,2.8C89.8,85.8,89.3,86,88.8,86z"/>
</g>
<g>
	<path class="st2" d="M106.8,78.7C106.8,78.7,106.8,78.7,106.8,78.7c-1.1,0-2-0.9-2-2l0.5-27.8c0-1.1,0.9-2,2-2c0,0,0,0,0,0
		c1.1,0,2,0.9,2,2l-0.5,27.8C108.8,77.8,107.9,78.7,106.8,78.7z"/>
</g>
<g>
	<path class="st2" d="M123.4,88c-0.5,0-1-0.2-1.4-0.6c-0.8-0.8-0.8-2.1,0-2.8l20.5-20c0.8-0.8,2.1-0.8,2.8,0c0.8,0.8,0.8,2.1,0,2.8
		l-20.5,20C124.4,87.8,123.9,88,123.4,88z"/>
</g>
<g>
	<path class="st2" d="M161.5,105.5h-29.3c-1.1,0-2-0.9-2-2c0-1.1,0.9-2,2-2h29.3c1.1,0,2,0.9,2,2
		C163.5,104.6,162.6,105.5,161.5,105.5z"/>
</g>
</svg>
